<svg xmlns="http://www.w3.org/2000/svg" width="1024" height="1024" viewBox="0 0 1024 1024" shape-rendering="geometricPrecision"><path fill="#09151c" fill-rule="evenodd" d="M611,851L616,863L613,865L623,865L626,872L628,866L629,875L637,878L629,873L631,870L641,873L640,869Z"/><path fill="#09151c" fill-rule="evenodd" d="M785,784L791,802L791,830L785,850L774,867L760,880L737,892L705,898L680,896L705,902L679,900L690,904L723,903L746,894L725,897L757,883L783,858L783,865L767,882L780,871L793,850L798,823L793,793L796,821L789,847L793,831L792,806Z"/><path fill="#09151c" fill-rule="evenodd" d="M737,735L715,729L689,729L635,747L575,790L481,881L443,904L439,911L435,909L412,920L420,920L399,929L412,928L397,934L437,918L478,891L587,788L633,754L671,736L716,734L733,738L712,733L683,734L689,731Z"/><path fill="#09151c" fill-rule="evenodd" d="M653,701L622,711L582,735L469,836L417,873L360,895L303,892L328,903L362,903L362,900L400,892L397,891L424,880L435,871L435,874L472,844L472,847L521,800L448,862L407,886L403,884L452,855L454,849L479,832L543,771L562,760L547,776L582,747L614,727L573,751L604,723Z M403,887L385,892L397,884Z"/><path fill="#09151c" fill-rule="evenodd" d="M315,577L322,583L341,577L332,585L321,585L325,586L343,576L438,578L346,577L345,574L352,574L339,564L329,573Z"/><path fill="#09151c" fill-rule="evenodd" d="M801,560L776,572L793,576L799,572Z"/><path fill="#09151c" fill-rule="evenodd" d="M777,521L770,530L759,534L766,542L774,537L779,528Z"/><path fill="#09151c" fill-rule="evenodd" d="M820,517L810,529L798,531L807,537L814,536L822,529Z"/><path fill="#09151c" fill-rule="evenodd" d="M791,484L782,489L777,487L775,493Z"/><path fill="#09151c" fill-rule="evenodd" d="M308,479L297,489L284,493L300,497L308,489Z"/><path fill="#09151c" fill-rule="evenodd" d="M476,431L470,439L454,446L471,448L477,439Z"/><path fill="#09151c" fill-rule="evenodd" d="M241,424L233,433L218,439L224,443L238,440L243,431Z"/><path fill="#09151c" fill-rule="evenodd" d="M815,396L793,412L801,416L810,414L816,406Z"/><path fill="#09151c" fill-rule="evenodd" d="M425,394L420,402L405,408L411,412L422,410Z"/><path fill="#09151c" fill-rule="evenodd" d="M202,384L194,404L197,410Z"/><path fill="#09151c" fill-rule="evenodd" d="M372,383L363,393L350,396L358,401L368,399L373,392Z"/><path fill="#09151c" fill-rule="evenodd" d="M285,365L261,378L267,382L279,380Z"/><path fill="#09151c" fill-rule="evenodd" d="M764,356L744,371L759,372L765,365Z"/><path fill="#09151c" fill-rule="evenodd" d="M714,316L707,326L692,332L710,333L716,325Z"/><path fill="#09151c" fill-rule="evenodd" d="M334,317L311,330L318,334L329,332Z"/><path fill="#09151c" fill-rule="evenodd" d="M376,291L355,304L371,305Z"/><path fill="#09151c" fill-rule="evenodd" d="M666,291L644,303L651,307L660,305Z"/><path fill="#09151c" fill-rule="evenodd" d="M619,266L610,275L601,277L614,279L619,274Z"/><path fill="#09151c" fill-rule="evenodd" d="M417,266L399,277L412,279L417,274Z"/><path fill="#09151c" fill-rule="evenodd" d="M892,256L869,267L856,287L848,321L849,346L853,355L853,314L865,280L855,326L860,367L877,398L902,406L917,400L929,383L936,353L936,318L924,278L906,262L915,264L927,276L906,258Z"/><path fill="#09151c" fill-rule="evenodd" d="M154,256L118,260L105,267L101,278L120,262Z"/><path fill="#09151c" fill-rule="evenodd" d="M374,201L372,197L368,227L353,257L332,276L309,286L281,288L262,283L239,268L219,242L232,267L259,286L285,290L331,282L359,256L370,233Z"/><path fill="#09151c" fill-rule="evenodd" d="M610,152L609,189L617,206L614,157Z"/><path fill="#09151c" fill-rule="evenodd" d="M422,141L476,166L484,175L486,186L480,167Z"/><path fill="#09151c" fill-rule="evenodd" d="M768,126L733,128L715,137L712,148L736,130Z"/><path fill="#09151c" fill-rule="evenodd" d="M285,119L267,126L252,149L245,178L245,206L248,218L248,177L259,145L252,177L256,231L271,260L280,266L300,268L319,255L326,241L332,182L322,142L301,124L319,134L303,121Z"/><path fill="#09151c" fill-rule="evenodd" d="M409,114L426,137L479,158L431,134Z"/><path fill="#09151c" fill-rule="evenodd" d="M625,59L614,64L609,77L613,130L615,77L620,66L628,62Z"/><path fill="#09151c" fill-rule="evenodd" d="M568,62L582,68L576,60Z"/><path fill="#09151c" fill-rule="evenodd" d="M457,53L440,59L431,71L437,71L446,58Z"/><path fill="#09151c" fill-rule="evenodd" d="M89,72L52,118L37,157L34,184L33,180L33,840L34,837L45,883L78,934L124,971L164,987L185,989L182,990L843,990L839,989L862,987L893,977L934,951L971,905L987,862L989,839L990,843L990,183L989,186L978,140L945,89L920,66L892,48L859,36L838,34L841,33L180,33L184,34L161,36L130,46Z M209,891L213,903L207,894Z M379,871L371,876L367,874Z M531,871L535,869L597,924L638,947L693,962L749,959L730,965L696,966L640,953L582,919Z M196,861L208,887L205,890L194,869Z M218,830L221,848L214,839Z M461,817L463,820L449,832L447,830Z M430,781L461,807L465,806L463,812Z M510,758L515,756L523,766L516,767Z M522,672L526,684L521,691Z M333,551L324,553L332,553L330,556L309,560L318,551Z M794,547L793,551L779,551Z M826,517L827,528L825,526L823,533L815,538L823,533L824,536L815,542L799,544L794,536L780,537L791,535L785,532L794,532L803,538L791,524L785,524L786,521L794,522L799,516L820,510Z M774,512L757,517L762,511Z M812,507L812,511L796,515L805,506Z M498,501L498,539L494,536Z M223,482L252,511L250,514L223,487Z M275,481L278,483L286,474L310,472L315,483L303,498L306,496L311,501L309,504L306,501L312,507L314,504L314,509L328,521L312,522L320,518L310,508L302,505L295,508L294,504L280,499L275,493Z M281,474L288,465L303,469Z M403,467L420,464L415,466L425,468Z M347,463L367,462L361,463L364,465Z M572,459L572,464L560,474Z M224,448L227,461L233,458L234,463L235,448L238,448L237,477L284,523L330,522L309,499L313,485L352,522L374,520L354,521L354,518L406,518L403,523L357,523L405,523L495,610L494,689L494,684L471,718L458,714L481,683L481,621L467,607L481,621L474,623L436,581L343,581L332,589L317,589L308,579L319,584L310,577L309,567L326,557L334,556L346,565L425,563L342,561L414,560L394,541L276,540L251,513L278,537L398,536L276,535L223,482Z M632,440L646,438L648,441Z M548,435L551,456L548,459Z M211,435L226,446L221,449L222,454L211,443Z M684,431L684,436L666,453Z M291,434L305,431L305,434L316,435Z M473,424L481,428L481,443L469,452L460,452L475,452L467,463L458,458L465,456L451,454L445,443L458,452L448,443L447,436L456,427Z M210,422L210,436L207,432Z M452,426L454,421L469,422Z M216,420L243,417L247,425L245,443L238,448L234,445L243,438L233,445L218,443L211,435Z M945,416L911,430L881,428L912,427L942,414Z M554,417L552,426L550,420L540,428L535,427L538,433L527,425L537,416Z M673,411L669,423L673,423L668,430L667,418Z M706,410L687,432L685,430Z M214,419L222,410L233,410L235,414Z M644,408L654,415L653,420Z M675,407L666,416L658,415Z M581,405L582,451L575,460L579,451L573,453L580,449Z M314,406L372,460L369,463L324,423Z M345,396L355,403L351,418L345,412L351,414L343,399Z M963,394L965,397L950,412Z M671,386L678,396L676,406L672,395L666,404L652,408L657,415L644,406L647,396Z M809,384L820,395L821,405L810,417L798,418L785,409L788,415L797,418L794,419L793,467L792,420L791,427L782,411L787,396L807,389Z M788,392L797,383L808,384Z M665,384L647,391L652,385Z M632,382L632,390L625,392Z M417,382L416,387L402,389L410,381Z M757,378L759,432L719,469L756,435L757,438L709,481L741,484L776,483L724,480L780,481L795,468L794,421L798,421L803,431L811,416L808,475L801,481L806,480L792,488L800,485L793,491L790,489L782,500L772,503L642,501L624,523L618,523L641,497L616,523L752,526L752,520L777,514L783,523L780,532L784,533L774,540L782,548L771,560L772,553L753,538L770,555L771,562L777,554L799,551L804,555L806,567L794,578L799,575L800,578L782,579L770,568L777,577L794,581L781,583L771,577L766,568L767,555L753,542L603,543L539,609L537,606L603,539L536,607L537,663L539,655L542,684L546,684L548,696L556,701L554,704L575,723L566,729L543,711L523,677L525,599L530,627L533,605L560,578L534,600L529,592L526,594L525,588L546,572L634,484L633,479L680,479L682,483L674,483L686,481L745,427L744,378L748,379L748,390L752,387L755,390Z M378,386L368,406L363,404L369,401L356,403L344,391L341,394L341,385L345,388L355,378L373,376Z M287,374L290,377L282,390L279,383Z M355,371L363,370L364,374L360,376L360,372Z M461,367L461,378L455,385Z M735,365L745,375L743,420L741,378L733,369Z M452,363L457,366L446,380L437,381L453,386L445,389L433,380L434,384L446,390L461,386L454,393L443,395L448,393L438,393L430,383L432,372Z M373,363L400,392L397,401L402,392L419,387L428,389L431,404L420,413L424,415L419,420L407,419L399,411L414,414L405,412L398,403L395,405L395,392L372,371Z M429,355L435,364L431,370L430,361L425,358Z M658,353L648,368L653,366L635,384L634,377Z M275,353L257,361L255,357L260,352L273,350Z M765,349L770,359L764,373L749,376L736,367L737,357L742,353Z M536,350L543,356L543,352L551,354L560,349L553,355L560,352L561,355L554,362L545,362Z M358,347L369,364L358,355Z M738,352L744,344L757,347Z M415,344L420,344L429,355L421,354Z M553,331L538,335L548,329Z M685,328L699,338L692,340L692,348Z M401,326L415,339L415,347L403,335Z M577,312L571,328L567,330L567,327L560,335L558,332Z M715,332L717,338L710,343L709,363L708,348L708,407L662,453L656,453L665,454L661,460L639,458L657,458L658,461L629,462L617,468L625,459L634,459L621,461L527,556L536,542L615,463L524,555L532,542L526,545L524,532L609,448L608,391L602,387L601,374L604,377L613,367L632,366L646,352L647,312L652,311L656,316L659,312L659,352L636,375L632,370L623,379L610,383L613,387L623,387L632,374L633,381L622,392L609,388L602,380L619,395L624,392L623,441L632,440L625,444L652,441L657,437L657,428L654,437L655,417L666,418L668,431L695,403L693,341L701,340L698,345L705,348L707,340L698,339L709,338Z M541,310L532,327L524,333L526,480L521,485L520,331Z M329,308L339,314L337,331L336,328L330,335L319,337L325,339L314,339L313,407L312,345L304,331L311,334L304,324L309,314Z M719,318L717,330L706,338L693,336L685,327L681,328L682,320L684,324L689,315L711,306Z M707,304L688,313L695,304Z M308,312L315,303L328,307Z M380,302L371,320L370,309L374,310L372,308Z M710,284L737,290L774,289L735,293Z M355,286L376,282L382,290L382,300L379,298L370,309L358,311L370,312L371,344L408,384L400,392L356,346L359,319L358,322L357,315L345,302L348,300L359,309L346,299Z M665,281L671,297L669,295L670,300L656,309L665,304L667,310L662,314L663,310L647,311L644,317L634,300L635,289L638,295L643,287Z M657,280L637,286L642,280Z M352,285L359,279L371,281Z M699,280L703,278L711,283L706,285Z M579,261L580,310L557,332L563,337L564,349L560,348L558,339L541,353L536,346L538,340L554,333L550,327L555,326L568,309L568,265L566,271L565,263L578,266Z M391,263L393,268L396,262L413,258L422,264L422,273L414,284L422,278L415,293L413,319L417,322L414,323L451,362L437,363L400,325L403,324L400,285L412,284L398,284L398,291L389,276L391,272L399,281L391,272Z M616,257L624,267L622,277L615,281L616,330L615,283L603,283L611,284L612,288L615,284L617,332L580,370L579,446L529,498L573,453L546,486L557,475L554,482L527,506L528,524L531,524L526,531L525,503L528,500L523,502L527,495L525,497L523,492L521,496L520,486L537,471L537,461L537,470L534,469L534,437L530,432L538,434L536,441L537,435L543,440L547,437L549,461L566,443L562,415L563,365L566,362L567,367L604,326L602,285L596,283L593,273L603,281L596,276L593,264L596,267Z M522,254L524,308L521,311Z M135,244L175,245L202,252L201,289L197,289L199,257L194,261L195,285L187,293L173,271L181,274L157,260L126,265L105,279L97,292L92,336L95,336L100,303L102,362L114,387L140,403L163,403L182,392L195,376L206,376L200,413L196,415L189,409L154,422L133,422L110,416L74,390L57,357L57,365L72,394L106,419L129,425L153,425L193,416L151,429L111,424L82,409L56,378L46,345L49,309L68,275L99,253Z M582,244L583,255L580,251L570,258L580,257L578,261L564,258L566,249Z M451,241L457,258L453,257L452,249L440,260L434,257L439,261L435,264L430,257L435,249Z M913,240L939,249L966,274L981,312L982,355L969,390L978,357L976,332L972,366L957,395L934,415L906,425L877,424L859,417L840,402L823,376L836,404L856,419L880,426L882,429L878,430L846,417L819,387L807,349L808,308L823,275L848,251L879,240Z M253,361L255,368L261,359L278,355L289,362L289,374L281,382L265,386L266,445L272,443L265,442L267,386L271,403L276,401L279,391L279,411L281,389L281,433L316,436L349,465L378,466L370,454L314,404L314,340L320,340L319,346L327,345L325,337L339,330L330,341L329,399L351,420L353,405L361,405L363,412L365,405L371,432L367,434L402,467L423,469L500,543L500,496L497,501L488,491L489,485L498,492L473,461L480,456L482,448L497,469L501,467L498,386L457,337L454,339L441,324L438,311L486,363L484,367L500,379L500,402L501,378L439,312L438,263L450,263L451,310L501,359L501,334L499,357L499,336L497,338L465,302L466,233L475,233L468,234L468,298L498,332L469,299L470,237L479,235L481,292L486,295L482,297L501,314L503,236L499,312L495,308L497,234L519,234L519,314L538,296L536,238L538,256L538,237L548,236L553,300L550,270L550,298L520,331L519,715L547,743L540,747L519,731L525,746L522,735L542,750L551,738L554,740L560,735L554,739L555,734L549,729L556,731L536,711L548,728L524,701L522,714L523,696L534,708L524,687L537,709L561,733L564,728L611,705L610,701L615,703L629,693L677,681L727,681L779,699L782,707L773,709L780,709L780,713L806,732L835,778L836,790L835,784L839,785L853,845L855,843L847,875L823,913L798,935L756,955L748,954L744,958L702,955L656,941L636,929L643,930L623,923L601,909L544,858L582,823L628,858L675,880L710,884L746,873L765,855L753,868L740,874L764,851L773,822L769,848L774,812L760,780L731,758L740,760L759,775L783,780L762,754L735,739L756,750L717,746L687,749L638,766L577,809L491,899L441,933L414,946L387,952L387,955L355,957L291,940L263,918L277,926L248,906L227,881L219,861L223,850L234,872L221,840L219,799L227,768L243,744L272,718L307,703L279,713L283,706L323,695L319,694L274,708L252,722L232,742L212,781L209,833L230,912L251,932L278,948L307,958L363,962L336,966L300,961L259,944L237,928L204,876L195,838L199,863L193,858L189,818L196,771L207,751L201,767L209,750L241,714L262,700L297,686L330,680L372,681L400,688L446,708L462,729L451,726L466,736L501,774L471,802L436,766L397,742L382,738L416,753L385,746L329,752L305,765L284,790L274,834L267,842L268,850L261,827L263,795L272,775L290,755L322,738L362,734L341,732L387,735L342,729L346,730L320,733L323,734L292,746L272,765L260,785L257,834L261,839L259,846L264,848L263,851L260,848L263,855L267,855L263,840L274,862L294,880L308,875L299,864L330,881L358,882L334,879L373,876L417,855L416,851L419,854L443,837L438,837L443,832L445,836L487,802L459,828L522,772L492,795L533,753L527,750L531,758L521,765L513,752L510,757L493,742L498,737L498,743L499,736L493,740L485,734L500,720L497,719L499,703L497,712L495,706L492,707L498,698L492,700L474,723L479,722L477,728L470,722L489,701L497,685L498,544L493,603L489,600L490,564L489,567L446,521L446,515L454,522L436,504L444,516L432,508L421,495L433,504L415,485L345,488L352,484L342,486L336,478L339,481L336,482L325,470L331,473L324,463L329,470L309,455L303,455L310,452L289,455L266,449L262,440L263,387L258,387L253,379L263,383L254,373L252,377Z M813,215L812,274L774,289L773,286L808,273Z M807,151L808,162L803,157Z M795,117L812,123L809,153L809,126L803,130L803,155L796,161L795,158L794,163L778,139L789,144L772,132L748,131L729,139L718,148L709,164L703,207L712,171L710,209L719,241L737,262L768,267L778,260L775,224L781,226L770,217L761,217L760,205L821,205L816,212L804,217L806,269L764,286L727,285L697,269L681,252L668,226L678,255L702,278L698,280L690,275L669,250L657,216L658,184L670,156L689,135L716,120L743,114Z M274,102L314,103L342,116L364,140L377,176L378,215L366,251L343,277L309,292L276,293L247,283L222,261L204,225L202,181L213,146L238,117Z M565,50L632,50L635,53L635,63L625,66L618,78L618,197L621,207L637,217L636,229L626,228L634,226L634,218L632,226L627,222L579,221L561,228L561,217L571,213L578,200L578,80L575,70L562,63Z M518,53L515,90L508,90L494,69L472,59L489,61L506,77L492,61L472,56L448,63L440,73L439,82L442,89L443,79L446,89L457,97L504,116L524,134L533,164L522,198L507,210L518,199L515,200L527,179L527,164L520,159L521,171L515,190L503,204L484,215L462,221L437,221L406,211L401,213L426,221L457,223L496,215L507,209L493,220L464,227L436,227L395,217L395,161L404,161L421,191L442,203L469,202L482,186L474,169L422,145L400,123L394,106L394,87L404,65L421,50L450,40L481,40Z"/><path fill="#09151c" fill-rule="evenodd" d="M81,67L55,96L38,126L24,182L24,839L38,889L69,937L120,979L152,993L183,999L841,999L897,985L942,956L968,927L985,897L999,841L999,184L985,134L954,86L903,44L871,30L840,24L182,24L131,36Z M85,66L132,37L168,27L187,27L185,25L837,25L834,27L869,31L900,44L951,85L986,139L996,172L996,189L998,187L998,838L996,836L991,876L981,902L965,928L938,957L896,984L855,996L835,996L838,998L186,998L189,996L158,993L123,979L72,938L37,884L25,836L25,185L27,187L30,154L42,121L61,91Z"/><path fill="#09151c" fill-rule="evenodd" d="M71,41L41,71L26,93L11,124L0,167L0,852L13,896L30,928L50,954L100,997L127,1011L169,1023L856,1023L904,1010L952,982L982,952L997,930L1012,899L1023,856L1023,171L1010,127L993,95L972,68L923,26L896,12L854,0L167,0L119,13Z M71,57L99,36L127,22L192,9L830,9L857,12L893,23L929,44L964,76L988,109L1001,135L1014,193L1014,830L1010,865L1001,896L981,933L953,965L924,987L896,1001L831,1014L193,1014L157,1009L126,998L90,976L59,947L35,914L22,888L9,830L9,192L15,149L27,116L47,83Z"/><path fill="#5c2407" fill-rule="evenodd" d="M196,862L195,869L213,902Z"/><path fill="#5c2407" fill-rule="evenodd" d="M835,781L841,833L833,865L816,894L789,920L743,940L693,944L650,934L615,917L656,940L715,956L753,955L790,939L828,906L851,861L854,843L853,846Z"/><path fill="#5c2407" fill-rule="evenodd" d="M212,745L195,775L189,803L196,773Z"/><path fill="#5c2407" fill-rule="evenodd" d="M522,736L534,753L532,757L541,749L526,744Z"/><path fill="#5c2407" fill-rule="evenodd" d="M756,751L722,736L689,735L637,753L587,789L478,892L437,919L404,934L365,943L327,943L287,932L257,914L305,945L355,956L395,952L441,932L491,898L577,808L638,765L672,751L695,747L749,747Z"/><path fill="#5c2407" fill-rule="evenodd" d="M421,757L393,742L363,735L330,737L300,749L280,766L265,792L262,827L268,849L266,842L273,834L283,790L311,760L329,751L361,745L394,746Z"/><path fill="#5c2407" fill-rule="evenodd" d="M498,683L487,707L471,722L479,729L478,722L473,723L495,696L494,700L497,699Z"/><path fill="#5c2407" fill-rule="evenodd" d="M522,679L524,691L535,708L523,697L523,714L524,700L554,729L550,729L556,734L550,741L565,730L559,732L538,712Z"/><path fill="#5c2407" fill-rule="evenodd" d="M309,577L319,589L335,587L343,580L436,580L468,616L479,623L437,578L343,577L335,585L323,587Z"/><path fill="#5c2407" fill-rule="evenodd" d="M539,608L603,542L753,541L768,555L768,572L778,582L799,577L793,581L775,577L767,566L769,556L756,540L603,540Z"/><path fill="#5c2407" fill-rule="evenodd" d="M781,537L794,535L800,543L815,541L823,534L814,541L803,540L794,533Z"/><path fill="#5c2407" fill-rule="evenodd" d="M786,495L773,499L642,498L619,522L624,522L637,505L643,505L642,500L772,502Z"/><path fill="#5c2407" fill-rule="evenodd" d="M275,483L276,493L285,503L294,503L295,507L307,505L321,519L326,519L306,497L300,501L283,498Z"/><path fill="#5c2407" fill-rule="evenodd" d="M223,483L227,493L278,540L394,540L415,560L419,558L399,537L278,538Z"/><path fill="#5c2407" fill-rule="evenodd" d="M470,463L497,500L496,491Z"/><path fill="#5c2407" fill-rule="evenodd" d="M446,443L451,453L465,455L466,458L459,458L469,461L472,451L469,455L458,453Z"/><path fill="#5c2407" fill-rule="evenodd" d="M264,442L266,448L280,451L277,452L310,451L311,454L304,455L313,457L342,485L353,484L345,487L415,484L489,566L490,559L484,552L488,560L415,482L347,481L339,476L340,480L312,450L279,445L266,447Z"/><path fill="#5c2407" fill-rule="evenodd" d="M756,437L708,480L717,478Z"/><path fill="#5c2407" fill-rule="evenodd" d="M708,412L664,454L622,457L527,555L604,482L587,495L613,468L615,471L616,466L629,461L657,461L639,457L661,459L659,457L682,440Z M619,463L624,458L635,459Z"/><path fill="#5c2407" fill-rule="evenodd" d="M399,409L407,418L416,419L412,420L423,415L412,416Z"/><path fill="#5c2407" fill-rule="evenodd" d="M581,406L580,447L527,502L526,528L532,522L527,524L527,508L532,503L526,506L571,464L572,460L565,465L574,453L578,453L575,459L580,455Z"/><path fill="#5c2407" fill-rule="evenodd" d="M313,401L314,410L363,458L372,461L319,412Z"/><path fill="#5c2407" fill-rule="evenodd" d="M345,397L352,416L353,403Z"/><path fill="#5c2407" fill-rule="evenodd" d="M431,380L443,394L452,393L460,383L446,391Z"/><path fill="#5c2407" fill-rule="evenodd" d="M735,366L742,384L743,375Z"/><path fill="#5c2407" fill-rule="evenodd" d="M658,354L636,377L635,383L651,363L657,361Z"/><path fill="#5c2407" fill-rule="evenodd" d="M535,348L545,361L554,361L560,355L542,357Z"/><path fill="#5c2407" fill-rule="evenodd" d="M358,348L365,363L374,368L396,396L396,389Z"/><path fill="#5c2407" fill-rule="evenodd" d="M716,334L708,338L709,362L709,343Z"/><path fill="#5c2407" fill-rule="evenodd" d="M615,331L581,370L616,335Z"/><path fill="#5c2407" fill-rule="evenodd" d="M305,331L313,346L313,338L317,337Z"/><path fill="#5c2407" fill-rule="evenodd" d="M402,329L413,345L428,357L425,357L432,367L429,358L433,360Z"/><path fill="#5c2407" fill-rule="evenodd" d="M337,329L337,333L327,337L331,341Z"/><path fill="#5c2407" fill-rule="evenodd" d="M438,312L442,324L499,386L499,412L496,376Z"/><path fill="#5c2407" fill-rule="evenodd" d="M579,310L560,334L579,318L580,314L573,320Z"/><path fill="#5c2407" fill-rule="evenodd" d="M549,303L521,332L522,482L522,338Z"/><path fill="#5c2407" fill-rule="evenodd" d="M381,301L371,309L372,315Z"/><path fill="#5c2407" fill-rule="evenodd" d="M346,301L357,314L357,309Z"/><path fill="#5c2407" fill-rule="evenodd" d="M635,293L644,316L647,309L637,302Z"/><path fill="#5c2407" fill-rule="evenodd" d="M467,290L466,302L497,337L499,334L484,318L487,319L468,301Z"/><path fill="#795119" fill-rule="evenodd" d="M637,502L642,497L780,497L642,497Z"/><path fill="#795119" fill-rule="evenodd" d="M75,55L47,85L27,119L16,150L11,184L11,837L17,870L27,896L58,944L87,972L115,991L151,1006L185,1012L839,1012L873,1007L904,996L949,967L976,938L996,904L1007,873L1012,839L1012,186L1006,153L996,127L965,79L941,55L908,32L876,18L838,11L184,11L150,16L119,27Z M77,69L131,33L178,23L843,23L869,28L902,42L951,81L985,131L1000,181L1000,845L985,900L968,929L946,954L900,985L845,1000L180,1000L151,994L121,981L72,942L38,892L23,842L23,178L38,123L55,94Z"/><path fill="#eb5602" fill-rule="evenodd" d="M533,872L590,923L638,950L692,964L748,959L693,963L638,948L600,927L570,904L536,872L541,864Z"/><path fill="#eb5602" fill-rule="evenodd" d="M409,765L461,811L471,801L461,808L445,791Z"/><path fill="#eb5602" fill-rule="evenodd" d="M790,811L782,781L759,776L728,756L744,765L766,787L774,807L775,832L766,855L753,869L734,880L710,885L683,883L651,871L611,848L582,824L573,831L621,870L624,867L612,861L612,851L635,864L640,871L632,872L628,867L625,872L628,874L630,870L630,875L649,885L682,895L709,896L745,887L773,866L788,837Z M599,847L605,846L608,851L602,853Z"/><path fill="#eb5602" fill-rule="evenodd" d="M220,803L226,851L249,891L289,922L335,934L391,928L441,907L499,865L600,769L637,745L672,731L689,728L732,731L755,741L770,753L788,776L797,801L799,823L794,850L781,871L761,890L723,904L690,905L633,886L572,844L558,859L617,908L652,925L692,934L728,933L759,925L788,908L811,885L807,885L814,881L827,855L831,824L832,831L827,783L806,744L769,714L742,704L716,701L721,700L665,705L621,723L566,762L452,863L405,891L372,902L328,904L295,890L275,873L256,839L259,785L275,762L302,740L324,731L361,728L358,730L381,731L419,747L472,790L489,772L464,745L436,724L402,708L370,701L335,700L343,701L296,708L275,718L248,740L227,774Z"/><path fill="#eb5602" fill-rule="evenodd" d="M785,707L766,694L725,683L688,682L638,692L611,703L567,733L459,829L414,861L358,883L321,879L296,862L309,875L306,879L292,879L319,892L343,895L383,887L412,874L462,840L582,734L614,714L649,699L713,690L762,701L781,713L781,709L773,708Z"/><path fill="#eb5602" fill-rule="evenodd" d="M332,682L270,698L224,731L240,719L220,740L204,768L196,794L194,827L205,876L231,917L225,913L239,927L282,953L314,962L350,964L362,962L323,962L278,949L251,933L229,912L207,823L209,789L223,754L243,729L274,707L309,695L352,691L418,705L459,729L485,756L456,726L460,724L453,715L436,703L396,688Z"/><path fill="#a4a4a4" fill-rule="evenodd" d="M847,398L849,405L867,417L859,412L861,410L881,419L862,411Z"/><path fill="#a4a4a4" fill-rule="evenodd" d="M942,386L924,408L936,398Z"/><path fill="#a4a4a4" fill-rule="evenodd" d="M198,380L184,395L167,405L142,407L169,405L187,394Z"/><path fill="#a4a4a4" fill-rule="evenodd" d="M206,377L194,401L202,383L199,410L193,405L187,409L192,408L196,414L200,411Z"/><path fill="#a4a4a4" fill-rule="evenodd" d="M976,367L958,402L943,415L918,425L929,424L952,410L968,391Z"/><path fill="#a4a4a4" fill-rule="evenodd" d="M69,352L83,385L97,399L114,407L112,397L92,368L87,351Z"/><path fill="#a4a4a4" fill-rule="evenodd" d="M842,336L830,348L831,363L846,392L866,409L846,368Z"/><path fill="#a4a4a4" fill-rule="evenodd" d="M972,334L960,345L952,378L930,409L906,421L869,418L904,422L931,415L924,419L943,408L965,380Z"/><path fill="#a4a4a4" fill-rule="evenodd" d="M54,325L52,353L62,385L57,378L66,392L91,414L130,427L161,426L194,415L160,425L129,426L94,414L65,386L57,369L57,356L75,390L105,413L133,421L154,421L185,410L162,417L139,418L116,413L93,400L100,408L96,408L66,377L57,355Z"/><path fill="#a4a4a4" fill-rule="evenodd" d="M817,305L812,323L812,350L819,376L837,405L859,423L838,406L825,387L824,377L835,394L815,351Z"/><path fill="#a4a4a4" fill-rule="evenodd" d="M100,304L94,339L91,315L94,357L108,386L128,402L115,390L129,398L106,372L99,343L97,348Z"/><path fill="#a4a4a4" fill-rule="evenodd" d="M906,261L927,278L938,307L941,344L930,389L910,408L886,408L875,402L864,388L854,347L854,355L850,356L865,393L879,405L894,410L912,408L926,398L936,380L941,357L941,318L934,288L925,272Z"/><path fill="#a4a4a4" fill-rule="evenodd" d="M698,261L718,281L731,283L719,279L722,277Z"/><path fill="#a4a4a4" fill-rule="evenodd" d="M158,261L182,274L171,269L180,277L187,292L194,285L194,273L194,285L189,289L176,268Z"/><path fill="#a4a4a4" fill-rule="evenodd" d="M943,257L958,272L968,291L975,321L975,342L976,331L979,337L979,355L979,320L972,294L963,277Z"/><path fill="#a4a4a4" fill-rule="evenodd" d="M191,262L160,254L127,256L95,272L80,292L87,310L96,288L106,278L96,295L92,313L100,287L114,271L135,261L156,260L135,261L111,273L118,265L141,257L160,258L178,266Z M155,256L130,259L100,278L104,267L118,259L139,254Z"/><path fill="#a4a4a4" fill-rule="evenodd" d="M202,253L193,261L193,269L193,261L200,257L199,290Z"/><path fill="#a4a4a4" fill-rule="evenodd" d="M843,281L848,291L866,264L876,255L889,253L912,255L938,274L917,255L884,251L862,260Z"/><path fill="#a4a4a4" fill-rule="evenodd" d="M787,250L782,271L787,269Z"/><path fill="#a4a4a4" fill-rule="evenodd" d="M336,248L319,270L333,258Z"/><path fill="#a4a4a4" fill-rule="evenodd" d="M902,242L876,244L852,253L831,272L820,295L834,270L854,253L876,244Z"/><path fill="#a4a4a4" fill-rule="evenodd" d="M794,232L792,256L800,263L801,236Z"/><path fill="#a4a4a4" fill-rule="evenodd" d="M810,230L809,273L762,290L725,290L699,277L678,256L691,274L687,270L712,286L735,292L764,291L811,274Z"/><path fill="#a4a4a4" fill-rule="evenodd" d="M678,213L690,247L708,266L723,274L724,264L705,239L698,216Z"/><path fill="#a4a4a4" fill-rule="evenodd" d="M761,205L761,216L770,216L780,223L778,218L786,224L778,214L782,217L766,215L770,212L765,213Z"/><path fill="#a4a4a4" fill-rule="evenodd" d="M408,207L427,215L445,216L412,203Z"/><path fill="#a4a4a4" fill-rule="evenodd" d="M236,199L224,213L229,232L244,257L262,271L244,238Z"/><path fill="#a4a4a4" fill-rule="evenodd" d="M401,189L399,214L402,215L405,210Z"/><path fill="#a4a4a4" fill-rule="evenodd" d="M666,184L663,221L677,254L667,230Z"/><path fill="#a4a4a4" fill-rule="evenodd" d="M713,170L707,204L702,207L702,191L704,219L714,245L741,269L766,272L779,267L782,260L771,270L748,270L723,253L713,236L708,216L708,190Z"/><path fill="#a4a4a4" fill-rule="evenodd" d="M510,147L499,163L501,182L493,205L504,201L494,209L509,197L518,181L519,173L517,183L516,176L509,191L510,181L517,174L516,158Z"/><path fill="#a4a4a4" fill-rule="evenodd" d="M605,145L592,154L590,209L598,213L609,213Z"/><path fill="#a4a4a4" fill-rule="evenodd" d="M523,143L525,151L519,148L517,151L519,160L528,164L526,182L516,200L503,211L478,221L457,224L404,216L431,223L457,224L482,220L505,210L503,214L466,225L493,219L521,198L531,174L531,167L523,193L528,174Z"/><path fill="#a4a4a4" fill-rule="evenodd" d="M585,140L582,207L586,195Z"/><path fill="#a4a4a4" fill-rule="evenodd" d="M730,134L713,148L714,137L696,153L691,162L699,174L713,148Z"/><path fill="#a4a4a4" fill-rule="evenodd" d="M345,125L358,141L369,173L371,202L365,232L366,200L357,205L349,237L336,260L321,275L303,283L273,281L243,262L252,274L276,284L302,284L325,278L318,282L332,275L358,248L367,227L372,196L374,220L362,253L344,273L325,284L285,291L260,286L241,275L225,257L219,239L239,267L263,282L245,272L219,238L211,211L211,171L207,204L212,231L223,255L242,278L216,250L229,268L247,282L276,292L317,289L343,276L365,251L376,221L378,193L376,215L368,158Z"/><path fill="#a4a4a4" fill-rule="evenodd" d="M753,127L772,128L789,138L800,135L799,130L782,126Z"/><path fill="#a4a4a4" fill-rule="evenodd" d="M399,118L416,140L468,164L485,181L481,197L464,208L445,208L422,198L447,209L465,208L477,202L486,188L481,172L463,160L426,145L410,134Z"/><path fill="#a4a4a4" fill-rule="evenodd" d="M285,118L266,127L253,144L244,176L244,211L257,250L277,268L261,253L250,219L251,177L259,146L249,177L248,219L244,206L247,161L256,139L272,123L296,118L313,126L317,133L302,124L319,138L329,153L336,185L336,212L324,254L312,267L292,272L312,268L329,248L336,222L337,185L331,155L320,133L303,120Z"/><path fill="#a4a4a4" fill-rule="evenodd" d="M239,143L244,152L262,126L286,115L309,119L333,136L309,116L281,113L258,122Z"/><path fill="#a4a4a4" fill-rule="evenodd" d="M402,103L407,119L418,133L478,160L491,173L488,164L467,147L423,127L479,157L426,138L411,120L411,116L421,126L405,102Z"/><path fill="#a4a4a4" fill-rule="evenodd" d="M610,63L598,66L605,85Z"/><path fill="#a4a4a4" fill-rule="evenodd" d="M473,59L494,68L508,89L516,88L516,64L515,89L509,86L501,69L503,74L489,62Z"/><path fill="#a4a4a4" fill-rule="evenodd" d="M565,51L563,63L571,65L577,73L571,65L575,65L585,84L584,68L578,60L568,60L565,54L563,63L565,51L632,52L628,60L624,58L629,62L621,66L616,77L613,131L610,127L610,151L615,157L618,206L612,204L610,190L610,199L619,213L633,216L631,223L617,221L632,225L634,217L635,226L627,228L636,228L636,217L620,207L617,197L617,78L625,65L634,63L634,53Z M567,62L576,59L583,68Z"/><path fill="#a4a4a4" fill-rule="evenodd" d="M429,72L429,79L433,81L437,69L451,56L482,53L508,69L513,86L510,62L478,51L447,54L436,61Z M458,53L446,59L434,74L430,71L443,56Z"/><path fill="#a4a4a4" fill-rule="evenodd" d="M479,44L451,44L426,52L407,69L401,89L411,68L427,53L452,44Z"/><path fill="#e4b34d" fill-rule="evenodd" d="M85,68L63,91L44,121L32,153L27,188L27,834L41,888L74,938L123,977L157,991L190,996L834,996L861,993L893,983L938,955L963,928L979,902L990,873L996,835L996,190L991,159L982,135L949,85L900,46L866,32L833,27L188,27L130,40Z M89,71L130,45L180,32L841,32L892,47L920,65L946,89L979,140L991,183L991,843L984,876L972,905L934,952L893,978L843,991L182,991L154,985L124,972L77,934L44,883L32,840L32,180L38,150L51,118Z"/><path fill="#fbd131" fill-rule="evenodd" d="M497,776L491,775L474,793Z"/><path fill="#fbd131" fill-rule="evenodd" d="M512,749L523,762L527,759L522,752Z"/><path fill="#fbd131" fill-rule="evenodd" d="M684,733L712,732L742,739L720,732Z"/><path fill="#fbd131" fill-rule="evenodd" d="M494,730L488,735L494,739L500,734Z"/><path fill="#fbd131" fill-rule="evenodd" d="M521,728L531,740L545,743Z"/><path fill="#fbd131" fill-rule="evenodd" d="M804,561L800,572L793,577L781,577L775,572L792,566L801,559L798,555L789,562L773,565L774,573L793,578L801,572Z"/><path fill="#fbd131" fill-rule="evenodd" d="M820,515L806,524L796,525L794,530L804,538L818,536L822,530L811,538L797,531L810,528Z"/><path fill="#fbd131" fill-rule="evenodd" d="M311,482L300,498L290,498L283,493L300,486L308,478L304,474L297,482L282,486L280,493L291,499L302,498L310,490Z"/><path fill="#fbd131" fill-rule="evenodd" d="M226,459L229,485L226,484L278,535L401,533L429,563L427,566L358,567L334,560L329,566L314,570L311,577L320,584L332,584L341,576L330,584L319,583L314,577L329,572L339,563L353,574L346,576L436,574L433,576L437,575L444,583L443,579L482,618L483,682L472,703L461,714L471,717L487,696L493,672L494,676L494,620L493,624L489,607L405,525L351,524L313,489L310,499L333,523L283,525L234,476L235,461L234,464L233,459L227,462Z"/><path fill="#fbd131" fill-rule="evenodd" d="M476,430L473,428L449,443L459,451L474,448L459,450L453,444L470,438Z"/><path fill="#fbd131" fill-rule="evenodd" d="M242,424L237,420L215,432L213,437L223,444L236,443L243,437L230,444L217,438Z"/><path fill="#fbd131" fill-rule="evenodd" d="M551,420L548,417L532,428L539,433L547,432L551,427L543,433L533,428Z"/><path fill="#fbd131" fill-rule="evenodd" d="M673,394L670,392L652,403L649,410L657,414L651,408L666,403Z"/><path fill="#fbd131" fill-rule="evenodd" d="M819,400L810,415L796,416L792,411L815,395L810,391L805,399L789,404L788,411L798,417L810,416Z"/><path fill="#fbd131" fill-rule="evenodd" d="M426,394L423,391L416,399L405,401L403,409L415,414L422,412L428,405L427,397L426,406L420,412L411,413L404,407L417,403Z"/><path fill="#fbd131" fill-rule="evenodd" d="M372,382L367,380L346,395L353,401L366,402L373,397L358,402L349,396L363,392Z"/><path fill="#fbd131" fill-rule="evenodd" d="M757,379L756,390L748,391L745,378L748,425L683,485L633,486L526,591L534,599L549,590L534,605L530,628L526,625L526,599L524,677L566,728L572,723L551,704L534,674L535,671L537,676L535,607L602,537L754,537L773,553L780,547L773,541L779,529L766,543L758,537L777,520L780,527L778,520L756,528L615,525L641,494L782,495L807,475L807,426L803,432L799,430L796,420L797,468L776,485L704,483L709,474L758,432Z M792,484L780,494L774,493L777,486Z M804,470L805,474L796,481Z"/><path fill="#fbd131" fill-rule="evenodd" d="M456,367L436,380L448,378Z"/><path fill="#fbd131" fill-rule="evenodd" d="M285,364L282,360L273,368L258,372L258,378L267,384L281,381L285,372L274,383L260,377Z"/><path fill="#fbd131" fill-rule="evenodd" d="M763,354L760,352L752,361L740,364L740,370L749,375L763,371L766,366L753,375L743,371Z"/><path fill="#fbd131" fill-rule="evenodd" d="M475,343L499,372L502,364L489,356L486,349L487,353L482,354L481,345Z"/><path fill="#fbd131" fill-rule="evenodd" d="M707,344L705,349L700,349L697,342L701,341L695,340L697,403L668,433L664,431L665,418L655,418L659,438L653,443L622,445L622,394L610,391L613,393L612,447L528,533L525,532L526,543L530,545L524,554L619,455L660,452L706,405Z"/><path fill="#fbd131" fill-rule="evenodd" d="M316,339L318,403L382,466L346,466L316,438L277,433L278,391L277,401L272,404L268,395L266,442L310,445L344,478L418,479L494,557L494,592L498,543L423,472L405,473L409,471L399,467L363,432L365,406L363,413L358,408L361,406L355,405L357,420L352,424L325,396L328,342L327,346L319,347Z"/><path fill="#fbd131" fill-rule="evenodd" d="M559,338L539,350L546,355L559,352L549,355L541,350Z"/><path fill="#fbd131" fill-rule="evenodd" d="M519,332L519,448L516,449L515,370L510,372L507,368L504,371L503,470L496,471L481,453L478,460L474,460L504,494L507,554L504,556L502,698L504,706L515,711Z"/><path fill="#fbd131" fill-rule="evenodd" d="M412,326L435,356L440,355Z"/><path fill="#fbd131" fill-rule="evenodd" d="M714,315L689,326L688,331L699,337L712,334L716,330L706,336L697,336L691,331L707,325Z"/><path fill="#fbd131" fill-rule="evenodd" d="M658,312L656,317L648,312L651,348L633,368L618,377L607,378L609,387L626,388L628,384L617,389L609,383L623,378L629,370L636,374L657,353Z"/><path fill="#fbd131" fill-rule="evenodd" d="M533,312L525,314L526,319L517,330Z"/><path fill="#fbd131" fill-rule="evenodd" d="M360,312L361,345L400,389L403,382L367,347L369,312L367,315Z"/><path fill="#fbd131" fill-rule="evenodd" d="M331,312L324,320L309,325L308,330L318,336L330,334L334,326L324,335L310,330L328,322L334,316Z"/><path fill="#fbd131" fill-rule="evenodd" d="M667,291L662,286L639,301L648,308L658,308L666,302Z M667,291L667,298L660,306L651,308L643,303L659,296L664,288Z"/><path fill="#fbd131" fill-rule="evenodd" d="M374,286L350,302L360,309L372,307L378,300L366,308L354,303L374,293Z"/><path fill="#fbd131" fill-rule="evenodd" d="M403,285L405,312L410,316L412,285Z"/><path fill="#fbd131" fill-rule="evenodd" d="M614,284L612,289L605,284L607,326L569,368L568,442L548,464L546,437L543,441L537,436L539,472L521,488L522,496L523,491L528,495L524,502L575,449L577,370L612,329Z"/><path fill="#fbd131" fill-rule="evenodd" d="M622,271L612,281L600,277L613,272L619,265L616,263L597,276L609,282L616,280Z"/><path fill="#fbd131" fill-rule="evenodd" d="M441,263L445,308L452,315L446,309L449,263Z"/><path fill="#fbd131" fill-rule="evenodd" d="M568,262L574,267L571,270L574,304L553,329L558,334L556,332L575,313L564,322L576,305L577,267L578,305L578,267Z"/><path fill="#fbd131" fill-rule="evenodd" d="M417,264L414,262L394,276L403,282L414,280L417,275L410,281L398,277Z"/><path fill="#fbd131" fill-rule="evenodd" d="M477,253L475,261L473,257L477,275L474,267Z"/><path fill="#fbd131" fill-rule="evenodd" d="M546,250L547,300L549,263L548,266L546,256L549,255L549,260L549,252Z"/><path fill="#fbd131" fill-rule="evenodd" d="M454,250L434,256L447,260L452,256L447,260L439,258Z"/><path fill="#fbe357" fill-rule="evenodd" d="M784,860L757,884L723,897L735,898L764,885L780,870Z"/><path fill="#fbe357" fill-rule="evenodd" d="M269,855L275,865L268,860L285,881L310,893L289,879Z"/><path fill="#fbe357" fill-rule="evenodd" d="M222,869L239,895L264,917L292,932L328,941L364,941L388,936L392,930L405,925L356,936L328,935L300,928L280,919L252,897L232,871L223,851Z"/><path fill="#fbe357" fill-rule="evenodd" d="M473,813L416,857L364,879L386,873L421,855Z"/><path fill="#fbe357" fill-rule="evenodd" d="M562,761L534,779L479,833L454,850L452,856L412,877L404,886L398,888L397,885L385,893L426,877L455,858Z"/><path fill="#fbe357" fill-rule="evenodd" d="M220,738L196,783L191,810L193,835L197,782Z"/><path fill="#fbe357" fill-rule="evenodd" d="M729,736L761,752L787,785L793,806L790,848L795,807L785,774L759,746L741,737Z"/><path fill="#fbe357" fill-rule="evenodd" d="M588,717L553,741L517,775Z"/><path fill="#fbe357" fill-rule="evenodd" d="M628,709L600,727L574,751L633,714L696,697L745,703L791,727L820,762L833,802L833,837L820,874L794,905L765,924L734,934L695,936L666,931L628,916L592,892L556,859L574,841L604,866L640,888L675,900L705,901L670,895L641,883L608,863L572,832L548,860L610,912L650,932L680,940L742,938L774,926L799,909L824,879L839,832L834,784L809,738L776,711L731,695L675,695Z"/><path fill="#fbe357" fill-rule="evenodd" d="M278,713L301,703L338,697L390,703L421,714L445,728L498,776L475,795L475,790L471,792L432,757L403,741L395,741L426,757L471,800L499,776L480,752L453,728L423,710L393,699L356,693L325,694L283,707Z"/><path fill="#fbe357" fill-rule="evenodd" d="M525,678L542,707L566,727L545,708Z"/><path fill="#fbe357" fill-rule="evenodd" d="M535,648L536,670L546,696L573,723L547,696L550,696L542,686L536,666Z"/><path fill="#fbe357" fill-rule="evenodd" d="M341,560L334,557L309,565L312,577L314,569L323,568L334,559L341,563Z"/><path fill="#fbe357" fill-rule="evenodd" d="M770,560L779,547L770,560L773,572L773,564L789,561L798,554L803,565L797,550L798,553L777,555L771,563Z"/><path fill="#fbe357" fill-rule="evenodd" d="M478,543L492,558L493,601L494,559Z"/><path fill="#fbe357" fill-rule="evenodd" d="M420,555L401,534L356,535L399,535Z"/><path fill="#fbe357" fill-rule="evenodd" d="M360,524L405,524L490,607L493,623L495,608L408,526Z"/><path fill="#fbe357" fill-rule="evenodd" d="M779,519L774,514L775,517L753,522L751,527L769,525Z"/><path fill="#fbe357" fill-rule="evenodd" d="M825,524L818,511L799,517L794,523L785,523L792,523L795,530L796,524L806,523L820,514L823,531Z"/><path fill="#fbe357" fill-rule="evenodd" d="M313,487L348,521L358,524L342,515Z"/><path fill="#fbe357" fill-rule="evenodd" d="M396,479L416,480L477,541L418,480Z"/><path fill="#fbe357" fill-rule="evenodd" d="M307,472L286,475L277,482L281,493L282,485L297,481L304,473L310,482Z"/><path fill="#fbe357" fill-rule="evenodd" d="M224,452L224,482L229,486L225,481Z"/><path fill="#fbe357" fill-rule="evenodd" d="M237,449L235,476L283,524L307,524L284,524L238,480Z"/><path fill="#fbe357" fill-rule="evenodd" d="M479,431L473,423L456,428L448,441L474,427L478,432L475,447Z"/><path fill="#fbe357" fill-rule="evenodd" d="M243,421L237,414L239,418L218,420L211,433L211,424L215,438L215,431L239,419L244,427L242,437Z"/><path fill="#fbe357" fill-rule="evenodd" d="M548,413L531,420L531,426L542,423L548,416L552,422Z"/><path fill="#fbe357" fill-rule="evenodd" d="M365,410L364,432L391,459L410,471L407,473L423,471L499,543L500,722L487,734L494,729L495,733L499,731L503,749L510,750L511,755L515,747L528,758L518,729L529,729L547,741L539,738L518,716L518,489L515,712L504,707L501,698L503,556L506,554L502,491L496,486L501,496L500,544L423,470L402,468L366,434Z"/><path fill="#fbe357" fill-rule="evenodd" d="M278,407L277,432L283,434L279,432Z"/><path fill="#fbe357" fill-rule="evenodd" d="M622,404L623,445L655,441L658,438L656,420L655,437L657,427L658,437L655,440L624,444Z"/><path fill="#fbe357" fill-rule="evenodd" d="M611,392L610,448L526,533L611,447Z"/><path fill="#fbe357" fill-rule="evenodd" d="M327,391L331,404L354,422L354,405L355,415L351,421L328,399L339,407Z"/><path fill="#fbe357" fill-rule="evenodd" d="M746,389L747,425L682,484L632,485L526,590L633,485L683,484L747,425Z"/><path fill="#fbe357" fill-rule="evenodd" d="M816,392L810,387L793,392L785,406L789,411L789,403L805,398L811,391L818,403Z"/><path fill="#fbe357" fill-rule="evenodd" d="M674,392L668,387L650,394L647,407L650,410L648,406L670,391L676,401Z"/><path fill="#fbe357" fill-rule="evenodd" d="M422,386L402,393L399,404L403,408L402,402L416,398L423,390L429,400Z"/><path fill="#fbe357" fill-rule="evenodd" d="M375,384L370,376L352,380L344,389L347,395L349,390L359,388L370,379L375,391Z"/><path fill="#fbe357" fill-rule="evenodd" d="M456,366L437,368L433,372L436,383L436,376Z"/><path fill="#fbe357" fill-rule="evenodd" d="M287,363L279,356L263,359L255,369L254,364L254,372L258,377L258,371L271,368L282,359L286,364L284,376Z"/><path fill="#fbe357" fill-rule="evenodd" d="M763,350L738,357L739,369L740,363L752,360L760,351L766,359Z"/><path fill="#fbe357" fill-rule="evenodd" d="M695,341L696,403L668,432L670,427L667,430L666,423L666,432L697,401Z"/><path fill="#fbe357" fill-rule="evenodd" d="M315,340L315,404L380,462L317,403Z"/><path fill="#fbe357" fill-rule="evenodd" d="M601,332L565,367L567,442L568,368Z"/><path fill="#fbe357" fill-rule="evenodd" d="M562,340L553,330L555,333L540,339L537,346L557,335Z"/><path fill="#fbe357" fill-rule="evenodd" d="M649,313L647,352L632,367L608,370L604,378L603,375L606,383L607,377L618,376L633,367L650,348Z"/><path fill="#fbe357" fill-rule="evenodd" d="M369,313L368,347L404,382L400,391L408,382L401,379L370,344Z"/><path fill="#fbe357" fill-rule="evenodd" d="M358,312L358,346L394,383L360,345Z"/><path fill="#fbe357" fill-rule="evenodd" d="M336,314L329,309L313,313L305,325L308,329L309,324L324,319L331,311L336,320L335,328Z"/><path fill="#fbe357" fill-rule="evenodd" d="M717,315L710,308L689,316L686,321L685,317L685,326L688,330L689,325L713,313L717,320L715,330Z"/><path fill="#fbe357" fill-rule="evenodd" d="M401,285L402,325L437,362L443,360L439,359L442,357L450,361L416,327L412,319L412,297L411,316L404,312Z M411,326L441,355L435,357Z"/><path fill="#fbe357" fill-rule="evenodd" d="M604,284L605,326L602,330L606,326Z"/><path fill="#fbe357" fill-rule="evenodd" d="M378,288L373,282L355,287L348,298L351,302L353,297L365,294L374,285L377,300Z"/><path fill="#fbe357" fill-rule="evenodd" d="M668,288L661,281L643,288L637,296L641,302L642,296L653,294L662,285L668,296Z"/><path fill="#fbe357" fill-rule="evenodd" d="M577,268L577,305L562,325L578,307Z"/><path fill="#fbe357" fill-rule="evenodd" d="M568,263L569,309L552,328L573,304L570,299L573,267Z"/><path fill="#fbe357" fill-rule="evenodd" d="M620,262L616,258L595,266L599,277L600,272L616,262L621,271Z"/><path fill="#fbe357" fill-rule="evenodd" d="M417,260L413,257L396,263L393,274L396,278L396,272L415,261L418,275Z"/><path fill="#fbe357" fill-rule="evenodd" d="M582,249L575,246L566,250L564,256Z"/><path fill="#fbe357" fill-rule="evenodd" d="M451,244L438,247L434,255L445,252Z"/><path fill="#fbe357" fill-rule="evenodd" d="M548,237L539,237L538,257L537,238L539,296L519,316L518,234L503,237L501,315L479,291L479,241L477,249L477,240L472,241L471,237L469,298L469,293L469,298L499,329L500,355L502,334L504,358L501,360L450,310L449,278L447,309L450,312L445,311L439,263L439,311L502,378L501,469L494,464L494,467L480,449L499,472L502,470L503,374L508,372L503,371L509,367L510,371L516,370L517,449L518,332L548,298L548,267L545,268Z M482,353L487,350L503,364L503,369L497,372Z M477,341L483,348L481,354L474,344Z M533,311L517,331L518,324L525,319L524,314Z M538,298L541,302L534,311L532,305Z M477,252L477,276L472,269L472,257L475,260Z"/><path fill="#e5e5e3" fill-rule="evenodd" d="M101,254L74,271L53,302L48,346L58,378L68,392L52,358L50,342L54,324L58,355L67,377L102,410L93,399L116,412L139,417L162,416L191,407L204,377L195,378L182,394L163,404L140,404L115,388L128,401L118,397L97,369L90,342L90,315L97,290L118,267L140,259L165,261L183,274L190,288L192,261L201,253L168,246L134,246Z M199,380L187,395L169,406L140,407L167,404Z M69,350L87,348L99,380L115,400L114,409L97,400L82,385L71,365Z M192,262L182,268L153,258L126,262L102,281L87,312L79,293L95,271L127,255L160,253Z"/><path fill="#e5e5e3" fill-rule="evenodd" d="M921,243L881,241L851,251L826,273L812,301L808,345L815,375L838,409L871,427L879,428L847,415L821,383L811,350L815,308L820,363L841,401L857,414L879,423L917,421L936,412L910,422L883,423L860,415L848,405L847,399L867,413L886,420L906,420L920,415L946,388L959,345L971,337L972,332L971,361L958,391L972,359L974,321L967,291L952,264L966,280L977,306L981,344L976,371L981,321L972,288L952,260Z M941,384L944,387L923,409Z M842,334L847,368L867,410L845,392L830,363L829,347Z M889,255L908,257L924,269L935,288L942,318L942,357L935,385L921,404L904,411L885,408L906,408L917,403L929,389L937,365L939,321L934,295L925,277L936,308L938,345L932,379L919,400L898,408L872,395L857,362L855,315L854,346L860,377L869,394L884,406L874,403L856,380L847,342L848,312L856,283L873,262Z M842,281L862,259L884,250L917,254L939,274L934,275L912,257L889,254L866,265L848,292Z M872,246L844,261L819,295L825,279L840,261L860,248Z"/><path fill="#e5e5e3" fill-rule="evenodd" d="M709,191L710,222L724,253L748,269L765,270L779,265L781,233L778,226L780,258L773,267L743,266L723,250L711,224Z"/><path fill="#e5e5e3" fill-rule="evenodd" d="M810,123L780,116L740,116L708,125L681,144L664,171L658,211L665,239L686,269L699,278L682,263L665,233L661,200L667,182L666,205L672,233L684,254L706,274L739,285L714,278L699,266L699,261L715,273L739,282L768,281L803,267L803,216L820,207L762,205L765,209L762,215L766,211L775,212L787,222L786,225L775,218L783,229L783,262L771,272L751,273L732,265L713,245L702,215L701,191L711,157L731,136L750,129L774,131L790,143L796,159L801,154L801,130Z M787,248L788,269L782,272Z M793,231L799,231L802,236L801,264L791,258Z M678,212L699,216L706,239L726,264L724,275L708,267L689,247L679,225Z M801,130L797,140L767,128L735,132L714,148L699,178L690,162L707,141L738,125L769,123Z M726,122L705,131L680,152L704,129Z"/><path fill="#e5e5e3" fill-rule="evenodd" d="M279,103L247,113L221,136L206,169L204,213L216,249L237,274L250,282L227,262L211,231L206,193L213,166L213,216L229,254L245,271L264,282L300,286L325,277L302,285L276,285L252,275L242,261L276,281L297,283L312,279L338,256L348,237L355,207L366,199L368,214L362,237L369,213L369,180L363,154L352,131L372,167L376,214L376,181L367,149L347,122L318,106Z M336,246L339,249L334,258L319,271Z M236,197L245,238L262,272L243,257L228,232L223,212Z M285,117L303,119L321,133L331,152L337,177L338,214L332,243L325,257L305,272L299,271L312,266L323,254L334,220L334,177L323,143L332,174L333,214L324,250L311,265L291,270L268,258L255,234L250,200L257,243L273,265L267,263L250,238L243,211L243,176L252,144L267,125Z M238,144L258,121L281,112L309,115L334,136L329,137L309,120L286,116L262,127L244,153Z M262,110L236,126L217,151L235,124L252,112Z"/><path fill="#e5e5e3" fill-rule="evenodd" d="M565,52L564,62L566,53L568,59L576,58L583,64L586,85L572,65L580,82L580,200L576,211L563,217L563,226L565,217L568,222L630,222L632,217L620,215L609,199L608,77L612,64L620,58L628,59L631,52Z M605,142L611,213L595,214L589,211L591,151Z M585,136L587,195L581,209Z M611,62L605,87L594,65Z"/><path fill="#e5e5e3" fill-rule="evenodd" d="M475,41L448,42L424,50L405,66L395,93L398,115L404,126L424,141L476,163L487,177L487,188L477,203L484,189L483,180L482,192L474,201L460,206L443,205L426,197L415,186L403,163L395,163L396,215L429,224L465,225L501,214L506,210L482,221L457,225L416,221L398,214L401,186L404,209L418,215L463,219L482,214L499,205L514,188L519,172L515,147L524,151L524,144L529,174L520,197L531,166L523,135L503,117L462,101L444,88L448,98L438,85L438,72L447,61L462,55L477,55L495,62L515,88L516,53Z M407,207L412,202L447,216L427,216Z M421,198L445,207L476,203L465,209L447,210Z M491,183L488,197L474,208Z M510,145L518,163L516,183L510,194L493,206L500,182L498,162Z M402,101L405,100L422,126L461,143L483,158L493,173L478,161L418,134L402,111Z M428,71L447,53L479,50L512,63L514,86L507,69L482,54L451,57L438,69L433,82L428,79Z M486,45L453,45L427,54L410,71L404,90L400,89L408,66L426,51L451,43Z"/></svg>